<?xml version="1.0" encoding="UTF-8" standalone="no"?>
<!DOCTYPE svg PUBLIC "-//W3C//DTD SVG 1.1//EN" "http://www.w3.org/Graphics/SVG/1.1/DTD/svg11.dtd">
<svg width="100%" height="100%" viewBox="0 0 2942 526" version="1.1" xmlns="http://www.w3.org/2000/svg" xmlns:xlink="http://www.w3.org/1999/xlink" xml:space="preserve" xmlns:serif="http://www.serif.com/" style="fill-rule:evenodd;clip-rule:evenodd;stroke-linejoin:round;stroke-miterlimit:2;">
    <g transform="matrix(1,0,0,1,-360.529,-1576.41)">
        <g transform="matrix(1,0,0,1,-128.285,530.525)">
            <g transform="matrix(687.5,0,0,687.5,479.876,1566.33)">
                <path d="M0.351,0L0.196,0L0.013,-0.538L0.168,-0.538L0.273,-0.213L0.378,-0.538L0.523,-0.538L0.628,-0.213L0.733,-0.538L0.889,-0.538L0.706,0L0.55,0L0.451,-0.293L0.351,0Z" style="fill:#232729;fill-rule:nonzero;"/>
            </g>
            <g transform="matrix(687.5,0,0,687.5,1055.31,1566.33)">
                <path d="M0.325,-0.115C0.354,-0.115 0.382,-0.122 0.409,-0.137C0.436,-0.151 0.457,-0.17 0.473,-0.194L0.559,-0.101C0.49,-0.028 0.413,0.008 0.327,0.008C0.24,0.008 0.171,-0.018 0.12,-0.071C0.069,-0.124 0.043,-0.191 0.043,-0.273C0.043,-0.354 0.071,-0.42 0.128,-0.471C0.184,-0.522 0.249,-0.547 0.322,-0.547C0.395,-0.547 0.457,-0.526 0.506,-0.485C0.555,-0.444 0.582,-0.39 0.586,-0.325L0.586,-0.306L0.228,-0.158C0.251,-0.129 0.283,-0.115 0.325,-0.115ZM0.33,-0.417C0.293,-0.417 0.261,-0.405 0.233,-0.381C0.204,-0.357 0.19,-0.324 0.19,-0.281C0.19,-0.273 0.19,-0.267 0.191,-0.263L0.425,-0.358C0.416,-0.397 0.385,-0.417 0.33,-0.417Z" style="fill:#232729;fill-rule:nonzero;"/>
            </g>
            <g transform="matrix(687.5,0,0,687.5,1445.13,1566.33)">
                <path d="M0.381,-0.547C0.446,-0.547 0.503,-0.522 0.552,-0.471C0.601,-0.42 0.625,-0.354 0.625,-0.274C0.625,-0.194 0.6,-0.127 0.55,-0.073C0.5,-0.019 0.443,0.008 0.38,0.008C0.316,0.008 0.263,-0.018 0.221,-0.071L0.221,0L0.071,0L0.071,-0.742L0.221,-0.742L0.221,-0.478C0.262,-0.524 0.316,-0.547 0.381,-0.547ZM0.219,-0.268C0.219,-0.225 0.231,-0.189 0.256,-0.162C0.28,-0.134 0.309,-0.12 0.344,-0.12C0.379,-0.12 0.409,-0.134 0.435,-0.162C0.461,-0.189 0.474,-0.225 0.474,-0.268C0.474,-0.311 0.461,-0.348 0.436,-0.377C0.411,-0.406 0.38,-0.421 0.345,-0.421C0.31,-0.421 0.28,-0.407 0.256,-0.378C0.231,-0.349 0.219,-0.312 0.219,-0.268Z" style="fill:#232729;fill-rule:nonzero;"/>
            </g>
            <g transform="matrix(687.5,0,0,687.5,1859,1566.33)">
                <path d="M0.351,0L0.196,0L0.013,-0.538L0.168,-0.538L0.273,-0.213L0.378,-0.538L0.523,-0.538L0.628,-0.213L0.733,-0.538L0.889,-0.538L0.706,0L0.55,0L0.451,-0.293L0.351,0Z" style="fill:#232729;fill-rule:nonzero;"/>
            </g>
            <g transform="matrix(687.5,0,0,687.5,2451.63,1566.33)">
                <path d="M0.221,0L0.071,0L0.071,-0.538L0.221,-0.538L0.221,0ZM0.083,-0.606C0.066,-0.623 0.058,-0.644 0.058,-0.669C0.058,-0.694 0.067,-0.715 0.084,-0.732C0.1,-0.748 0.121,-0.757 0.146,-0.757C0.171,-0.757 0.192,-0.748 0.209,-0.732C0.226,-0.715 0.234,-0.694 0.234,-0.669C0.234,-0.644 0.226,-0.624 0.209,-0.607C0.192,-0.59 0.171,-0.581 0.146,-0.581C0.121,-0.581 0.1,-0.589 0.083,-0.606Z" style="fill:#232729;fill-rule:nonzero;"/>
            </g>
            <g transform="matrix(687.5,0,0,687.5,2611.13,1566.33)">
                <path d="M0.286,0.008C0.223,0.008 0.166,-0.019 0.116,-0.073C0.066,-0.127 0.041,-0.194 0.041,-0.274C0.041,-0.354 0.065,-0.42 0.114,-0.471C0.163,-0.522 0.22,-0.547 0.285,-0.547C0.35,-0.547 0.404,-0.524 0.445,-0.478L0.445,-0.742L0.595,-0.742L0.595,0L0.445,0L0.445,-0.071C0.403,-0.018 0.35,0.008 0.286,0.008ZM0.192,-0.268C0.192,-0.225 0.205,-0.189 0.231,-0.162C0.257,-0.134 0.287,-0.12 0.322,-0.12C0.357,-0.12 0.386,-0.134 0.411,-0.162C0.435,-0.189 0.447,-0.225 0.447,-0.269C0.447,-0.312 0.435,-0.349 0.411,-0.378C0.386,-0.407 0.356,-0.421 0.321,-0.421C0.286,-0.421 0.255,-0.406 0.23,-0.377C0.205,-0.348 0.192,-0.311 0.192,-0.268Z" style="fill:#232729;fill-rule:nonzero;"/>
            </g>
            <g transform="matrix(687.5,0,0,687.5,3027.75,1566.33)">
                <path d="M0.325,-0.115C0.354,-0.115 0.382,-0.122 0.409,-0.137C0.436,-0.151 0.457,-0.17 0.473,-0.194L0.559,-0.101C0.49,-0.028 0.413,0.008 0.327,0.008C0.24,0.008 0.171,-0.018 0.12,-0.071C0.069,-0.124 0.043,-0.191 0.043,-0.273C0.043,-0.354 0.071,-0.42 0.128,-0.471C0.184,-0.522 0.249,-0.547 0.322,-0.547C0.395,-0.547 0.457,-0.526 0.506,-0.485C0.555,-0.444 0.582,-0.39 0.586,-0.325L0.586,-0.306L0.228,-0.158C0.251,-0.129 0.283,-0.115 0.325,-0.115ZM0.33,-0.417C0.293,-0.417 0.261,-0.405 0.233,-0.381C0.204,-0.357 0.19,-0.324 0.19,-0.281C0.19,-0.273 0.19,-0.267 0.191,-0.263L0.425,-0.358C0.416,-0.397 0.385,-0.417 0.33,-0.417Z" style="fill:#232729;fill-rule:nonzero;"/>
            </g>
        </g>
    </g>
</svg>
